<svg xmlns="http://www.w3.org/2000/svg" xmlns:xlink="http://www.w3.org/1999/xlink" width="251.53" height="104.426" viewBox="0 0 251.53 104.426">
  <defs>
    <clipPath id="clip-path">
      <path id="Path_691" data-name="Path 691" d="M0-56.261H251.53V-160.687H0Z" transform="translate(0 160.687)" fill="#fff"/>
    </clipPath>
  </defs>
  <g id="Logo_Wedge_Footer" transform="translate(0 160.687)">
    <g id="Group_2231" data-name="Group 2231" transform="translate(0 -160.687)" clip-path="url(#clip-path)">
      <g id="Group_2222" data-name="Group 2222" transform="translate(0 30.004)">
        <path id="Path_682" data-name="Path 682" d="M-20.453-.387q0,.529-1.337.587a2.042,2.042,0,0,0-1.987,1.556q-.493,1.493-1.515,6.346-1.772,8.525-3.149,14.5Q-30.8,32.8-32.728,42.323c-.107.539-.242.809-.4.809-.135,0-.263-.207-.383-.618s-.478-1.856-1.069-4.331q-1.1-4.861-2.387-9.783-1.017-3.866-2-7.977-2.74,10.516-5.441,21.966c-.105.495-.238.743-.4.743q-.2,0-.476-1.058-1.219-4.6-9.049-38.141A20.553,20.553,0,0,0-55.153.977q-.276-.59-1.376-.653Q-58.416.2-58.417-.546q0-.56.63-.56a1.6,1.6,0,0,1,.472.062q2.085.187,4.484.187.474,0,1.633-.125a29.685,29.685,0,0,1,3.01-.123h.432q.669,0,.669.571,0,.7-1.211.763-2.423.126-2.422,1.016,0,1.742,7.23,32.422,2.629-10.512,3.925-15.488L-43.45,2.243A3.489,3.489,0,0,0-44.182.569,2.542,2.542,0,0,0-45.7.135c-.738-.041-1.107-.228-1.107-.558q0-.683.827-.682a11.732,11.732,0,0,1,1.534.123A26.383,26.383,0,0,0-41.3-.857h7.316q1.455,0,3.5-.2a2.694,2.694,0,0,1,.55-.049q.944,0,.945.655,0,.589-.669.589h-.669A4.13,4.13,0,0,0-33,.884Q-33.4,1.2-34.459,5.36q-.476,1.741-1.588,5.905-.232.937-.694,2.809.275,1.246,1.722,6.913,1.87,7.2,3.077,12.354,2.213-10.074,5.217-23.817,1.589-7.316,1.589-8.129,0-1.187-1.377-1.189-1.927,0-1.927-.688c0-.416.261-.625.786-.625a5.491,5.491,0,0,1,1.063.083,8.433,8.433,0,0,0,1.573.166h3.148q1.18,0,1.3.147a.505.505,0,0,1,.118.323M-37.095.324h-1.141q-1.416.126-1.416.814,0,.124,2.316,10.819.9-3.114,2.111-8.222.162-.682.488-1.8l.081-.5q0-1.115-2.44-1.116" transform="translate(58.417 1.106)" fill="#fff"/>
      </g>
      <g id="Group_2223" data-name="Group 2223" transform="translate(38.872 29.942)">
        <path id="Path_683" data-name="Path 683" d="M-11.361-18.034q0,.251-.079,3.049t-.079,5.351V-7.58q-3.856-.373-15.265-.374H-31.7c-.5,0-.747-.166-.747-.5,0-.222.079-.353.237-.389q.118,0,1.494-.168,1.024-.123,1.239-.687a11.3,11.3,0,0,0,.217-2.932V-47.706a3.915,3.915,0,0,0-.335-2.152q-.335-.343-2.144-.343-.63,0-.63-.53t.866-.528h16.68a8.819,8.819,0,0,0,2.164-.249q.079,2.675.355,7.4l.157,2.675a6.926,6.926,0,0,1,.039.81q0,.622-.354.622-.434,0-.63-1.565-.748-5.635-2.439-7.139-1.258-1.126-6.609-1.128h-3.227v18.293h.945q4.4,0,5.369-1.059t1.318-6.159q.079-1.307.433-1.306.432,0,.432,1.119t-.079,3.3q-.079,2.179-.079,3.3,0,6.66.125,9.148.032.622.032,1.057,0,.808-.43.809c-.184,0-.307-.177-.372-.53s-.177-1.5-.333-3.453q-.313-3.669-1.919-4.541a10.46,10.46,0,0,0-3.681-.373h-1.762V-9.385q8.654,0,10.15-.553,2.6-.923,2.951-7.866.078-1.535.511-1.536.392,0,.393,1.306" transform="translate(32.447 51.508)" fill="#fff"/>
      </g>
      <g id="Group_2224" data-name="Group 2224" transform="translate(61.645 30.19)">
        <path id="Path_684" data-name="Path 684" d="M-13.862-11.666q0,10.984-4.839,17.1a11.454,11.454,0,0,1-9.481,4.492H-38.843q-.748,0-.748-.621,0-.561,1.259-.561,1.611,0,2.006-.933a9.927,9.927,0,0,0,.158-2.364V-28.092a11.059,11.059,0,0,0-.3-3.546q-.3-.5-2.026-.5c-.6,0-.9-.227-.9-.684,0-.331.222-.5.667-.5h6.846q7.08,0,10.031,1.56,3.58,1.873,5.784,7.394a34.081,34.081,0,0,1,2.2,12.7m-4.406-.25q0-10.36-2.557-15.2a8.453,8.453,0,0,0-7.986-4.838q-2.636,0-3.187.874a9.936,9.936,0,0,0-.236,3v33.2a20.9,20.9,0,0,0,.059,2.123,1.036,1.036,0,0,0,.334.624q.946.75,3.974.749,4.248,0,6.845-4.744,2.754-4.992,2.754-15.789" transform="translate(39.591 33.318)" fill="#fff"/>
      </g>
      <g id="Group_2225" data-name="Group 2225" transform="translate(89.931 29.567)">
        <path id="Path_685" data-name="Path 685" d="M-13.65-16.592q0,.5-.354.5h-.9q-1.811-.125-2.046.99a46.4,46.4,0,0,0-.159,5.388v1.982A14.157,14.157,0,0,1-20.986-3.89a8.584,8.584,0,0,1-4.466,1.114q-6.216,0-9.874-5.879t-3.659-15.96q0-10.2,3.581-16.489t9.441-6.284a9.649,9.649,0,0,1,5.586,2.241,2.732,2.732,0,0,0,1.5.684q.748,0,.983-1.493.2-.871.472-.871c.211,0,.315.167.315.5q0,.187-.068,1.306-.207,3.547-.207,5.1v4.045q.038,2.177.038,1.928-.078,1.493-.51,1.493c-.237,0-.368-.292-.394-.875q-.2-6.061-2.2-9.532t-5.271-3.468q-4.093,0-6.471,5.8t-2.38,15.787q0,9.611,2.419,15.258t6.55,5.647a4.309,4.309,0,0,0,4.328-2.848,15.173,15.173,0,0,0,.59-5.14q0-3.1-.373-3.654t-2.577-.5a1.664,1.664,0,0,1-.708-.092c-.105-.062-.157-.2-.157-.4q0-.681.865-.681h.708q.59.061,4.17,0h4.328q.786,0,.786.557" transform="translate(38.986 47.389)" fill="#fff"/>
      </g>
      <g id="Group_2226" data-name="Group 2226" transform="translate(114.677 29.942)">
        <path id="Path_686" data-name="Path 686" d="M-11.361-18.034q0,.251-.079,3.049t-.079,5.351V-7.58q-3.856-.373-15.265-.374H-31.7c-.5,0-.747-.166-.747-.5,0-.222.079-.353.237-.389q.117,0,1.494-.168,1.024-.123,1.239-.687a11.273,11.273,0,0,0,.217-2.932V-47.706a3.915,3.915,0,0,0-.335-2.152q-.335-.343-2.144-.343-.63,0-.63-.53t.866-.528h16.68a8.819,8.819,0,0,0,2.164-.249q.079,2.675.355,7.4l.157,2.675a6.947,6.947,0,0,1,.038.81c0,.415-.117.622-.353.622q-.434,0-.63-1.565-.748-5.635-2.439-7.139-1.258-1.126-6.609-1.128h-3.227v18.293h.945q4.4,0,5.369-1.059t1.318-6.159q.079-1.307.433-1.306.432,0,.432,1.119t-.079,3.3q-.079,2.179-.079,3.3,0,6.66.127,9.148c.02.415.031.768.031,1.057q0,.808-.43.809c-.184,0-.307-.177-.372-.53s-.177-1.5-.333-3.453q-.313-3.669-1.919-4.541a10.46,10.46,0,0,0-3.681-.373h-1.762V-9.385q8.654,0,10.15-.553,2.6-.923,2.951-7.866.078-1.535.511-1.536.392,0,.393,1.306" transform="translate(32.447 51.508)" fill="#fff"/>
      </g>
      <g id="Group_2227" data-name="Group 2227" transform="translate(136.03 30.004)">
        <path id="Path_687" data-name="Path 687" d="M-20.453-.387q0,.529-1.337.587a2.042,2.042,0,0,0-1.987,1.556q-.493,1.493-1.515,6.346-1.772,8.525-3.149,14.5Q-30.8,32.8-32.728,42.323c-.107.539-.242.809-.4.809-.135,0-.262-.207-.383-.618s-.478-1.856-1.069-4.331q-1.1-4.861-2.386-9.783-1.018-3.866-2-7.977-2.74,10.516-5.441,21.966c-.105.495-.238.743-.4.743q-.2,0-.476-1.058-1.219-4.6-9.049-38.141A20.553,20.553,0,0,0-55.153.977q-.275-.59-1.376-.653Q-58.416.2-58.417-.546q0-.56.63-.56a1.6,1.6,0,0,1,.472.062q2.085.187,4.485.187.473,0,1.632-.125a29.694,29.694,0,0,1,3.01-.123h.432q.669,0,.669.571,0,.7-1.211.763-2.423.126-2.422,1.016,0,1.742,7.23,32.422,2.629-10.512,3.925-15.488L-43.45,2.243A3.489,3.489,0,0,0-44.182.569,2.542,2.542,0,0,0-45.7.135c-.738-.041-1.107-.228-1.107-.558q0-.683.827-.682a11.732,11.732,0,0,1,1.534.123A26.383,26.383,0,0,0-41.3-.857h7.316q1.455,0,3.5-.2a2.694,2.694,0,0,1,.55-.049q.944,0,.945.655,0,.589-.669.589h-.669A4.13,4.13,0,0,0-33,.884Q-33.4,1.2-34.459,5.36q-.476,1.741-1.588,5.905-.232.937-.694,2.809.275,1.246,1.722,6.913,1.87,7.2,3.077,12.354,2.213-10.074,5.217-23.817,1.589-7.316,1.589-8.129,0-1.187-1.376-1.189-1.927,0-1.928-.688c0-.416.261-.625.786-.625a5.491,5.491,0,0,1,1.063.083,8.433,8.433,0,0,0,1.573.166h3.148q1.18,0,1.3.147a.505.505,0,0,1,.118.323M-37.095.324h-1.141q-1.415.126-1.416.814,0,.124,2.316,10.819.9-3.114,2.111-8.222.162-.682.488-1.8l.081-.5q0-1.115-2.44-1.116" transform="translate(58.417 1.106)" fill="#fff"/>
      </g>
      <g id="Group_2228" data-name="Group 2228" transform="translate(172.231 29.568)">
        <path id="Path_688" data-name="Path 688" d="M-13.46-12.135q0,9.271-3.521,15.679t-8.636,6.409q-5.43,0-9.127-6.5t-3.7-16.022q0-9.706,3.561-15.9t9.108-6.191q5.232,0,8.773,6.471t3.541,16.053m-4.407.313q0-11.419-2.951-17.784Q-22.666-33.6-25.97-33.6a5.37,5.37,0,0,0-4.878,3.057q-3.187,5.619-3.187,18.284,0,10.048,2.222,15.6T-25.577,8.9q3.737,0,5.626-5.243,2.085-5.8,2.085-15.475" transform="translate(38.442 34.659)" fill="#fff"/>
      </g>
      <g id="Group_2229" data-name="Group 2229" transform="translate(199.809 29.568)">
        <path id="Path_689" data-name="Path 689" d="M-13.46-12.135q0,9.271-3.521,15.679t-8.636,6.409q-5.43,0-9.127-6.5t-3.7-16.022q0-9.706,3.561-15.9t9.108-6.191q5.232,0,8.773,6.471t3.541,16.053m-4.407.313q0-11.419-2.95-17.784Q-22.666-33.6-25.97-33.6a5.37,5.37,0,0,0-4.878,3.057q-3.187,5.619-3.187,18.284,0,10.048,2.223,15.6T-25.577,8.9q3.737,0,5.626-5.243,2.085-5.8,2.085-15.475" transform="translate(38.442 34.659)" fill="#fff"/>
      </g>
      <g id="Group_2230" data-name="Group 2230" transform="translate(225.801 30.19)">
        <path id="Path_690" data-name="Path 690" d="M-13.862-11.666q0,10.984-4.839,17.1a11.454,11.454,0,0,1-9.481,4.492H-38.843q-.748,0-.748-.621,0-.561,1.259-.561,1.611,0,2.006-.933a9.927,9.927,0,0,0,.158-2.364V-28.092a11.059,11.059,0,0,0-.3-3.546q-.3-.5-2.027-.5-.9,0-.9-.684,0-.5.668-.5h6.846q7.081,0,10.031,1.56,3.58,1.873,5.784,7.394a34.081,34.081,0,0,1,2.2,12.7m-4.406-.25q0-10.36-2.557-15.2a8.454,8.454,0,0,0-7.987-4.838q-2.635,0-3.186.874a9.936,9.936,0,0,0-.236,3v33.2a20.9,20.9,0,0,0,.059,2.123,1.032,1.032,0,0,0,.334.624q.946.75,3.974.749,4.248,0,6.845-4.744,2.754-4.992,2.754-15.789" transform="translate(39.591 33.318)" fill="#fff"/>
      </g>
    </g>
    <g id="Group_2232" data-name="Group 2232" transform="translate(110.531 -160.687)">
      <path id="Path_692" data-name="Path 692" d="M0,0V1.673H3.835V15.412H5.284V1.673H9.1V0Z" fill="#fff"/>
    </g>
    <g id="Group_2233" data-name="Group 2233" transform="translate(121.754 -160.687)">
      <path id="Path_693" data-name="Path 693" d="M-3.771,0V6.627H-9.3V0h-1.467V15.412H-9.3V8.255h5.532v7.156h1.449V0Z" transform="translate(10.769)" fill="#fff"/>
    </g>
    <g id="Group_2234" data-name="Group 2234" transform="translate(133.559 -160.687)">
      <path id="Path_694" data-name="Path 694" d="M0,0V15.412H7.44V13.738H1.467V8.3H6.946V6.671H1.467v-5H7.44V0Z" fill="#fff"/>
    </g>
    <g id="Group_2235" data-name="Group 2235" transform="translate(110.875 -72.002)">
      <path id="Path_695" data-name="Path 695" d="M-4.285,0-7.431,7.156h-.036L-10.613,0h-1.625l4.082,8.917v6.495h1.413V8.917L-2.66,0Z" transform="translate(12.238)" fill="#fff"/>
    </g>
    <g id="Group_2237" data-name="Group 2237" transform="translate(0 -160.687)" clip-path="url(#clip-path)">
      <g id="Group_2236" data-name="Group 2236" transform="translate(120.985 88.355)">
        <path id="Path_696" data-name="Path 696" d="M-2.828-8.659a4.248,4.248,0,0,1-1.954-.463,5.1,5.1,0,0,1-1.661-1.4,7,7,0,0,1-1.193-2.553,14.324,14.324,0,0,1-.441-3.754,9.626,9.626,0,0,1,1.538-5.834A4.517,4.517,0,0,1-2.828-24.73,4.433,4.433,0,0,1,.821-22.617,9.878,9.878,0,0,1,2.35-16.739,14.468,14.468,0,0,1,1.917-13,6.774,6.774,0,0,1,.742-10.474,5.051,5.051,0,0,1-.9-9.11a4.253,4.253,0,0,1-1.926.451m0-1.718A3,3,0,0,0-.213-11.983,9.063,9.063,0,0,0,.8-16.739,8.62,8.62,0,0,0-.239-21.384a3.026,3.026,0,0,0-2.589-1.606A3.1,3.1,0,0,0-5.47-21.428a8.268,8.268,0,0,0-1.052,4.6A9.172,9.172,0,0,0-5.5-12.016a3.059,3.059,0,0,0,2.67,1.64" transform="translate(8.077 24.73)" fill="#fff"/>
      </g>
    </g>
    <g id="Group_2238" data-name="Group 2238" transform="translate(134.063 -72.002)">
      <path id="Path_698" data-name="Path 698" d="M-3.914,0V12.4h-.036L-9.587,0h-1.591V15.412h1.467V3.016h.035L-4,15.412h1.538V0Z" transform="translate(11.178)" fill="#fff"/>
    </g>
    <g id="Group_2240" data-name="Group 2240" transform="translate(0 -160.687)" clip-path="url(#clip-path)">
      <g id="Group_2239" data-name="Group 2239" transform="translate(82.659 88.355)">
        <path id="Path_699" data-name="Path 699" d="M-2.828-8.659a4.25,4.25,0,0,1-1.954-.463,5.1,5.1,0,0,1-1.661-1.4,7,7,0,0,1-1.193-2.553,14.324,14.324,0,0,1-.441-3.754,9.626,9.626,0,0,1,1.538-5.834A4.517,4.517,0,0,1-2.828-24.73,4.433,4.433,0,0,1,.821-22.617,9.878,9.878,0,0,1,2.35-16.739,14.468,14.468,0,0,1,1.917-13,6.774,6.774,0,0,1,.742-10.474,5.051,5.051,0,0,1-.9-9.11a4.253,4.253,0,0,1-1.926.451m0-1.718A3,3,0,0,0-.213-11.983,9.063,9.063,0,0,0,.8-16.739,8.62,8.62,0,0,0-.239-21.384a3.026,3.026,0,0,0-2.589-1.606A3.1,3.1,0,0,0-5.47-21.428a8.268,8.268,0,0,0-1.052,4.6A9.179,9.179,0,0,0-5.5-12.016a3.059,3.059,0,0,0,2.67,1.64" transform="translate(8.077 24.73)" fill="#fff"/>
      </g>
    </g>
    <g id="Group_2241" data-name="Group 2241" transform="translate(95.738 -72.002)">
      <path id="Path_701" data-name="Path 701" d="M-3.913,0V12.4h-.036L-9.587,0h-1.59V15.412H-9.71V3.016h.035L-4,15.412h1.538V0Z" transform="translate(11.177)" fill="#fff"/>
    </g>
    <g id="Group_2243" data-name="Group 2243" transform="translate(0 -160.687)" clip-path="url(#clip-path)">
      <g id="Group_2242" data-name="Group 2242" transform="translate(145.428 88.355)">
        <path id="Path_702" data-name="Path 702" d="M-2.819-8.659A4.287,4.287,0,0,1-4.79-9.121,5.069,5.069,0,0,1-6.451-10.53a6.918,6.918,0,0,1-1.175-2.564,14.9,14.9,0,0,1-.424-3.754,9.632,9.632,0,0,1,1.529-5.812,4.5,4.5,0,0,1,3.7-2.069A3.961,3.961,0,0,1,.257-23.322a6.7,6.7,0,0,1,1.555,3.677l-1.467.33q-.619-3.676-3.164-3.676a3.106,3.106,0,0,0-2.642,1.563,8.22,8.22,0,0,0-1.051,4.58,9.172,9.172,0,0,0,1.034,4.81,3.057,3.057,0,0,0,2.659,1.662A2.844,2.844,0,0,0-.4-11.575a5.288,5.288,0,0,0,.848-3.292h-3.11V-16.54H1.918v1.5A7.507,7.507,0,0,1,.61-10.354,4.127,4.127,0,0,1-2.819-8.659" transform="translate(8.05 24.73)" fill="#fff"/>
      </g>
    </g>
    <g id="Group_2244" data-name="Group 2244" transform="translate(158.047 -72.002)">
      <path id="Path_704" data-name="Path 704" d="M0,0V15.412H7.44V13.738H1.467V8.3H6.946V6.67H1.467v-5H7.44V0Z" fill="#fff"/>
    </g>
  </g>
</svg>
