<svg id="Logo_Noik_Footer" xmlns="http://www.w3.org/2000/svg" xmlns:xlink="http://www.w3.org/1999/xlink" width="99.289" height="52.403" viewBox="0 0 99.289 52.403">
  <defs>
    <clipPath id="clip-path">
      <rect id="Rectangle_839" data-name="Rectangle 839" width="99.289" height="52.403" fill="#fff"/>
    </clipPath>
  </defs>
  <g id="Group_2262" data-name="Group 2262" clip-path="url(#clip-path)">
    <path id="Path_719" data-name="Path 719" d="M45.9,49.229H49.6a.711.711,0,0,0,.711-.711V28.668a.712.712,0,0,0-.711-.711H45.887a.711.711,0,0,0-.711.711v14.21L33.552,28.517a1.511,1.511,0,0,0-1.173-.56h-3.71a.711.711,0,0,0-.711.711v19.85a.711.711,0,0,0,.711.711h3.718a.711.711,0,0,0,.711-.711V34.309L44.723,48.67a1.507,1.507,0,0,0,1.173.559" transform="translate(-18.125 -18.124)" fill="#fff"/>
    <path id="Path_720" data-name="Path 720" d="M211.1,28.67V48.519a.712.712,0,0,0,.712.712h3.718a.711.711,0,0,0,.712-.712V28.67a.71.71,0,0,0-.712-.711h-3.718a.711.711,0,0,0-.712.711" transform="translate(-136.857 -18.126)" fill="#fff"/>
    <path id="Path_721" data-name="Path 721" d="M238.78,48.115l-6.546-9.522,6.546-9.521a.712.712,0,0,0-.586-1.115H234.74a1.313,1.313,0,0,0-1.082.57l-6.922,10.066,6.922,10.068a1.313,1.313,0,0,0,1.082.569h3.454a.712.712,0,0,0,.586-1.115" transform="translate(-146.991 -18.124)" fill="#fff"/>
    <path id="Path_722" data-name="Path 722" d="M183.04,54.342h4.283a.711.711,0,0,0,.712-.711V35.844l-5.706,5.4V53.631a.711.711,0,0,0,.712.711" transform="translate(-118.202 -23.237)" fill="#fff"/>
    <path id="Path_723" data-name="Path 723" d="M188.034,27.957H183.04a.712.712,0,0,0-.712.712v4.692Z" transform="translate(-118.202 -18.124)" fill="#fff"/>
    <path id="Path_724" data-name="Path 724" d="M126.941,37.646c0-8.432-5.3-11.2-11.842-11.2s-11.842,2.769-11.842,11.2,5.3,11.2,11.842,11.2,11.842-2.768,11.842-11.2m-18.353,0c0-3.947,1.609-7.146,6.511-7.146s6.511,3.2,6.511,7.146S120,44.794,115.1,44.794s-6.511-3.2-6.511-7.148" transform="translate(-66.941 -17.144)" fill="#fff"/>
    <path id="Path_725" data-name="Path 725" d="M99.289,5.182A5.182,5.182,0,0,0,94.107,0H5.181A5.182,5.182,0,0,0,0,5.182V17.265a.746.746,0,0,0,.746.746H4.171a.745.745,0,0,0,.746-.746V4.917H94.372V17.265a.746.746,0,0,0,.746.746h3.424a.746.746,0,0,0,.746-.746Z" transform="translate(0 -0.001)" fill="#fff"/>
    <path id="Path_726" data-name="Path 726" d="M0,78.018A5.181,5.181,0,0,0,5.182,83.2H94.108a5.181,5.181,0,0,0,5.181-5.181V65.935a.745.745,0,0,0-.746-.746H95.119a.745.745,0,0,0-.746.746V78.283H4.917V65.935a.745.745,0,0,0-.746-.746H.747A.745.745,0,0,0,0,65.935Z" transform="translate(-0.001 -42.261)" fill="#fff"/>
    <path id="Path_727" data-name="Path 727" d="M29.7,131.824H28V130.4h5.1v1.423H31.4v5H29.7Z" transform="translate(-18.152 -84.538)" fill="#fff"/>
    <path id="Path_728" data-name="Path 728" d="M45.938,130.4h1.7v2.391h1.918V130.4h1.7v6.421h-1.7v-2.548H47.637v2.548h-1.7Z" transform="translate(-29.781 -84.538)" fill="#fff"/>
    <path id="Path_729" data-name="Path 729" d="M66.041,130.4H70.19v1.422H67.74v1.008h2.094v1.422H67.74V135.4h2.549v1.422H66.041Z" transform="translate(-42.814 -84.538)" fill="#fff"/>
    <path id="Path_730" data-name="Path 730" d="M89.222,130.4H90.96l1.422,2.865.611,1.442h.041a23.126,23.126,0,0,1-.217-2.449V130.4h1.621v6.421H92.7l-1.424-2.874-.611-1.432h-.039c.077.731.216,1.659.216,2.45v1.856h-1.62Z" transform="translate(-57.842 -84.538)" fill="#fff"/>
    <path id="Path_731" data-name="Path 731" d="M108.245,133.363c0-2.114,1.2-3.3,2.984-3.3s2.983,1.2,2.983,3.3-1.206,3.358-2.983,3.358-2.984-1.245-2.984-3.358m4.227,0c0-1.166-.474-1.838-1.244-1.838s-1.245.671-1.245,1.838.473,1.9,1.245,1.9,1.244-.731,1.244-1.9" transform="translate(-70.174 -84.318)" fill="#fff"/>
    <rect id="Rectangle_838" data-name="Rectangle 838" width="1.698" height="6.421" transform="translate(45.511 45.863)" fill="#fff"/>
    <path id="Path_732" data-name="Path 732" d="M139.189,130.4h1.7v2.391h.04l1.621-2.391h1.857l-1.918,2.608,2.292,3.813h-1.857l-1.422-2.469-.613.868v1.6h-1.7Z" transform="translate(-90.235 -84.538)" fill="#fff"/>
    <path id="Path_733" data-name="Path 733" d="M165.728,130.063a2.87,2.87,0,0,1,2.055.85l-.929,1.047a1.482,1.482,0,0,0-1.105-.434c-.869,0-1.523.691-1.523,1.857,0,1.2.534,1.877,1.681,1.877a.973.973,0,0,0,.493-.119v-.889h-.947v-1.384H167.9v3.062a3.621,3.621,0,0,1-2.212.791,3.028,3.028,0,0,1-3.2-3.28,3.161,3.161,0,0,1,3.241-3.379" transform="translate(-105.339 -84.319)" fill="#fff"/>
    <path id="Path_734" data-name="Path 734" d="M185.927,136.822l-1.107-2.152h-.652v2.152h-1.7V130.4h2.43c1.384,0,2.569.475,2.569,2.074a1.973,1.973,0,0,1-1.037,1.858l1.391,2.488Zm-1.759-3.5h.613c.672,0,1.027-.3,1.027-.85s-.355-.73-1.027-.73h-.613Z" transform="translate(-118.293 -84.538)" fill="#fff"/>
    <path id="Path_735" data-name="Path 735" d="M200.088,133.363c0-2.114,1.2-3.3,2.983-3.3s2.984,1.2,2.984,3.3-1.2,3.358-2.984,3.358-2.983-1.245-2.983-3.358m4.229,0c0-1.166-.474-1.838-1.245-1.838s-1.245.671-1.245,1.838.474,1.9,1.245,1.9,1.245-.731,1.245-1.9" transform="translate(-129.715 -84.318)" fill="#fff"/>
    <path id="Path_736" data-name="Path 736" d="M221.04,130.4h1.7v3.516c0,1.147.3,1.562.968,1.562s.989-.416.989-1.562V130.4h1.639v3.32c0,2.193-.83,3.22-2.628,3.22s-2.667-1.027-2.667-3.22Z" transform="translate(-143.298 -84.538)" fill="#fff"/>
    <path id="Path_737" data-name="Path 737" d="M240.959,130.4h2.49c1.383,0,2.568.514,2.568,2.134a2.271,2.271,0,0,1-2.568,2.254h-.79v2.034h-1.7Zm2.411,3.043c.672,0,.989-.336.989-.909s-.355-.79-.989-.79h-.71v1.7Z" transform="translate(-156.212 -84.537)" fill="#fff"/>
  </g>
</svg>
