<svg xmlns="http://www.w3.org/2000/svg" xmlns:xlink="http://www.w3.org/1999/xlink" width="220.239" height="91.435" viewBox="0 0 220.239 91.435">
  <defs>
    <clipPath id="clip-path">
      <path id="Path_691" data-name="Path 691" d="M0-69.252H220.239v-91.435H0Z" transform="translate(0 160.687)" fill="none"/>
    </clipPath>
  </defs>
  <g id="Logo_Wedge_Nav" transform="translate(0 160.687)">
    <g id="Group_2231" data-name="Group 2231" transform="translate(0 -160.687)" clip-path="url(#clip-path)">
      <g id="Group_2222" data-name="Group 2222" transform="translate(0 26.271)">
        <path id="Path_682" data-name="Path 682" d="M-25.176-.477q0,.463-1.17.514A1.788,1.788,0,0,0-28.087,1.4q-.432,1.308-1.326,5.557-1.552,7.464-2.758,12.692-2.066,8.936-3.753,17.272c-.094.472-.212.708-.353.708-.118,0-.23-.182-.336-.541s-.418-1.625-.936-3.792q-.959-4.257-2.09-8.566-.89-3.385-1.747-6.985-2.4,9.208-4.764,19.234c-.092.433-.208.65-.347.65q-.175,0-.417-.926-1.068-4.03-7.923-33.4A18,18,0,0,0-55.559.718Q-55.8.2-56.764.146q-1.652-.108-1.653-.762,0-.49.551-.49a1.4,1.4,0,0,1,.413.054q1.826.164,3.926.164.415,0,1.43-.11a25.992,25.992,0,0,1,2.636-.108h.378q.586,0,.586.5,0,.612-1.06.668-2.122.11-2.121.889,0,1.525,6.33,28.388,2.3-9.2,3.436-13.561l-3.4-13.953A3.055,3.055,0,0,0-45.953.36a2.226,2.226,0,0,0-1.333-.38c-.646-.036-.969-.2-.969-.489q0-.6.724-.6A10.272,10.272,0,0,1-46.189-1a23.1,23.1,0,0,0,2.756.11h6.406q1.274,0,3.066-.175a2.359,2.359,0,0,1,.482-.043q.826,0,.827.574,0,.516-.586.516h-.586a3.616,3.616,0,0,0-2.343.653q-.345.273-1.275,3.919-.417,1.524-1.39,5.171-.2.82-.608,2.46.241,1.091,1.508,6.053,1.637,6.307,2.694,10.817Q-33.3,20.236-30.667,8.2q1.391-6.406,1.391-7.118,0-1.04-1.206-1.041-1.687,0-1.687-.6c0-.364.229-.547.689-.547a4.808,4.808,0,0,1,.93.072,7.384,7.384,0,0,0,1.378.146h2.756q1.033,0,1.136.129a.442.442,0,0,1,.1.283M-39.747.146h-1q-1.24.11-1.24.712,0,.108,2.028,9.473.788-2.726,1.848-7.2.142-.6.427-1.574l.071-.435q0-.976-2.136-.978" transform="translate(58.417 1.106)" fill="#fff"/>
      </g>
      <g id="Group_2223" data-name="Group 2223" transform="translate(34.036 26.217)">
        <path id="Path_683" data-name="Path 683" d="M-13.984-22.2q0,.219-.069,2.67t-.069,4.685v1.8q-3.377-.327-13.366-.328h-4.306c-.436,0-.654-.145-.654-.438,0-.195.069-.309.207-.341q.1,0,1.308-.147.9-.108,1.085-.6a9.9,9.9,0,0,0,.19-2.567V-48.179a3.428,3.428,0,0,0-.293-1.885q-.294-.3-1.877-.3-.551,0-.551-.464t.758-.463h14.6a7.722,7.722,0,0,0,1.895-.218q.069,2.342.311,6.483l.138,2.342a6.064,6.064,0,0,1,.034.709q0,.545-.31.545-.38,0-.552-1.37-.655-4.934-2.136-6.251-1.1-.986-5.786-.987h-2.825V-34.02h.827q3.856,0,4.7-.927t1.154-5.393q.069-1.145.38-1.144.378,0,.378.98t-.069,2.888q-.069,1.908-.069,2.887,0,5.831.11,8.01.028.545.028.926,0,.708-.377.708c-.161,0-.269-.155-.326-.464s-.155-1.316-.291-3.024q-.274-3.213-1.68-3.976a9.159,9.159,0,0,0-3.223-.327h-1.543v18.25q7.578,0,8.887-.484,2.274-.808,2.584-6.887.068-1.344.448-1.345.343,0,.344,1.144" transform="translate(32.447 51.508)" fill="#fff"/>
      </g>
      <g id="Group_2224" data-name="Group 2224" transform="translate(53.977 26.435)">
        <path id="Path_684" data-name="Path 684" d="M-17.063-14.359q0,9.618-4.237,14.971a10.029,10.029,0,0,1-8.3,3.933h-9.335q-.655,0-.655-.544,0-.492,1.1-.491,1.411,0,1.756-.817a8.692,8.692,0,0,0,.138-2.07V-28.742a9.683,9.683,0,0,0-.258-3.105q-.259-.435-1.774-.436c-.529,0-.792-.2-.792-.6,0-.29.194-.436.584-.436h5.995q6.2,0,8.783,1.366,3.135,1.64,5.064,6.474a29.842,29.842,0,0,1,1.929,11.118m-3.858-.219q0-9.071-2.239-13.306a7.4,7.4,0,0,0-6.993-4.236q-2.308,0-2.79.765a8.7,8.7,0,0,0-.207,2.623V.341A18.3,18.3,0,0,0-33.1,2.2a.907.907,0,0,0,.292.546q.828.656,3.48.656,3.72,0,5.994-4.154,2.411-4.371,2.412-13.825" transform="translate(39.591 33.318)" fill="#fff"/>
      </g>
      <g id="Group_2225" data-name="Group 2225" transform="translate(78.743 25.889)">
        <path id="Path_685" data-name="Path 685" d="M-16.8-20.423q0,.439-.31.439H-17.9q-1.586-.109-1.791.867a40.626,40.626,0,0,0-.139,4.718v1.736A12.4,12.4,0,0,1-23.226-9.3a7.516,7.516,0,0,1-3.91.975q-5.443,0-8.646-5.148t-3.2-13.974q0-8.935,3.135-14.438t8.267-5.5a8.449,8.449,0,0,1,4.891,1.962,2.392,2.392,0,0,0,1.309.6q.655,0,.861-1.308.172-.762.413-.763c.184,0,.275.146.275.436q0,.164-.059,1.144-.181,3.106-.181,4.468v3.542q.033,1.906.034,1.688-.068,1.308-.447,1.308c-.208,0-.322-.255-.345-.766a17.9,17.9,0,0,0-1.929-8.346q-1.756-3.036-4.615-3.037-3.584,0-5.666,5.082t-2.084,13.823q0,8.415,2.118,13.36t5.735,4.945a3.773,3.773,0,0,0,3.789-2.494,13.285,13.285,0,0,0,.517-4.5,8.4,8.4,0,0,0-.327-3.2q-.329-.489-2.257-.435a1.457,1.457,0,0,1-.62-.081c-.092-.054-.138-.172-.138-.352q0-.6.757-.6h.62q.516.054,3.651,0h3.789q.688,0,.689.488" transform="translate(38.986 47.389)" fill="#fff"/>
      </g>
      <g id="Group_2226" data-name="Group 2226" transform="translate(100.411 26.217)">
        <path id="Path_686" data-name="Path 686" d="M-13.984-22.2q0,.219-.069,2.67t-.069,4.685v1.8q-3.377-.327-13.366-.328h-4.306c-.436,0-.654-.145-.654-.438,0-.195.069-.309.207-.341q.1,0,1.308-.147.9-.108,1.085-.6a9.871,9.871,0,0,0,.19-2.567V-48.179a3.428,3.428,0,0,0-.293-1.885q-.294-.3-1.877-.3-.551,0-.551-.464t.758-.463h14.6a7.722,7.722,0,0,0,1.895-.218q.069,2.342.311,6.483l.138,2.342a6.083,6.083,0,0,1,.034.709c0,.363-.1.545-.309.545q-.38,0-.552-1.37-.655-4.934-2.136-6.251-1.1-.986-5.786-.987h-2.825V-34.02h.827q3.856,0,4.7-.927t1.154-5.393q.069-1.145.38-1.144.378,0,.378.98t-.069,2.888q-.069,1.908-.069,2.887,0,5.831.111,8.01c.018.363.027.672.027.926q0,.708-.377.708c-.161,0-.269-.155-.326-.464s-.155-1.316-.291-3.024q-.274-3.213-1.68-3.976a9.159,9.159,0,0,0-3.223-.327h-1.543v18.25q7.578,0,8.887-.484,2.274-.808,2.584-6.887.068-1.344.448-1.345.343,0,.344,1.144" transform="translate(32.447 51.508)" fill="#fff"/>
      </g>
      <g id="Group_2227" data-name="Group 2227" transform="translate(119.108 26.271)">
        <path id="Path_687" data-name="Path 687" d="M-25.176-.477q0,.463-1.17.514A1.788,1.788,0,0,0-28.087,1.4q-.432,1.308-1.326,5.557-1.552,7.464-2.758,12.692-2.066,8.936-3.753,17.272c-.094.472-.212.708-.353.708-.118,0-.229-.182-.336-.541s-.418-1.625-.936-3.792q-.959-4.257-2.089-8.566-.891-3.385-1.747-6.985-2.4,9.208-4.764,19.234c-.092.433-.208.65-.347.65q-.174,0-.417-.926-1.068-4.03-7.923-33.4A18,18,0,0,0-55.559.718Q-55.8.2-56.764.146q-1.652-.108-1.653-.762,0-.49.551-.49a1.4,1.4,0,0,1,.413.054q1.826.164,3.927.164.414,0,1.429-.11a26,26,0,0,1,2.636-.108h.378q.586,0,.586.5,0,.612-1.06.668-2.122.11-2.121.889,0,1.525,6.33,28.388,2.3-9.2,3.436-13.561l-3.4-13.953A3.055,3.055,0,0,0-45.953.36a2.226,2.226,0,0,0-1.333-.38c-.646-.036-.969-.2-.969-.489q0-.6.724-.6A10.272,10.272,0,0,1-46.189-1a23.1,23.1,0,0,0,2.756.11h6.406q1.274,0,3.066-.175a2.359,2.359,0,0,1,.482-.043q.826,0,.827.574,0,.516-.586.516h-.586a3.616,3.616,0,0,0-2.343.653q-.345.273-1.275,3.919-.417,1.524-1.39,5.171-.2.82-.608,2.46.241,1.091,1.508,6.053,1.637,6.307,2.694,10.817Q-33.3,20.236-30.667,8.2q1.391-6.406,1.391-7.118,0-1.04-1.205-1.041-1.687,0-1.688-.6c0-.364.229-.547.689-.547a4.808,4.808,0,0,1,.93.072,7.384,7.384,0,0,0,1.378.146h2.756q1.033,0,1.136.129a.442.442,0,0,1,.1.283M-39.747.146h-1q-1.239.11-1.24.712,0,.108,2.028,9.473.788-2.726,1.848-7.2.142-.6.427-1.574l.071-.435q0-.976-2.136-.978" transform="translate(58.417 1.106)" fill="#fff"/>
      </g>
      <g id="Group_2228" data-name="Group 2228" transform="translate(150.805 25.889)">
        <path id="Path_688" data-name="Path 688" d="M-16.567-14.937A28.175,28.175,0,0,1-19.65-1.209Q-22.734,4.4-27.212,4.4q-4.754,0-7.992-5.693t-3.238-14.029q0-8.5,3.118-13.919t7.975-5.421q4.581,0,7.681,5.666t3.1,14.056m-3.859.274q0-10-2.584-15.572-1.618-3.5-4.512-3.5a4.7,4.7,0,0,0-4.271,2.677q-2.79,4.92-2.791,16.01,0,8.8,1.945,13.661t5.46,4.863q3.272,0,4.926-4.59,1.826-5.081,1.825-13.55" transform="translate(38.442 34.659)" fill="#fff"/>
      </g>
      <g id="Group_2229" data-name="Group 2229" transform="translate(174.952 25.889)">
        <path id="Path_689" data-name="Path 689" d="M-16.567-14.937A28.175,28.175,0,0,1-19.65-1.209Q-22.734,4.4-27.212,4.4q-4.754,0-7.992-5.693t-3.238-14.029q0-8.5,3.118-13.919t7.975-5.421q4.581,0,7.682,5.666t3.1,14.056m-3.859.274q0-10-2.583-15.572-1.619-3.5-4.512-3.5a4.7,4.7,0,0,0-4.271,2.677q-2.79,4.92-2.791,16.01,0,8.8,1.946,13.661t5.46,4.863q3.272,0,4.926-4.59,1.826-5.081,1.825-13.55" transform="translate(38.442 34.659)" fill="#fff"/>
      </g>
      <g id="Group_2230" data-name="Group 2230" transform="translate(197.711 26.435)">
        <path id="Path_690" data-name="Path 690" d="M-17.063-14.359q0,9.618-4.237,14.971a10.029,10.029,0,0,1-8.3,3.933h-9.335q-.655,0-.655-.544,0-.492,1.1-.491,1.411,0,1.756-.817a8.692,8.692,0,0,0,.138-2.07V-28.742a9.683,9.683,0,0,0-.258-3.105q-.259-.435-1.775-.436-.792,0-.792-.6,0-.435.585-.436h5.994q6.2,0,8.783,1.366,3.135,1.64,5.064,6.474a29.842,29.842,0,0,1,1.929,11.118m-3.858-.219q0-9.071-2.239-13.306a7.4,7.4,0,0,0-6.993-4.236q-2.307,0-2.79.765a8.7,8.7,0,0,0-.207,2.623V.341A18.3,18.3,0,0,0-33.1,2.2a.9.9,0,0,0,.292.546q.828.656,3.48.656,3.72,0,5.994-4.154,2.411-4.371,2.412-13.825" transform="translate(39.591 33.318)" fill="#fff"/>
      </g>
    </g>
    <g id="Group_2232" data-name="Group 2232" transform="translate(96.78 -160.687)">
      <path id="Path_692" data-name="Path 692" d="M0,0V1.465H3.358V13.494H4.627V1.465H7.969V0Z" fill="#fff"/>
    </g>
    <g id="Group_2233" data-name="Group 2233" transform="translate(106.607 -160.687)">
      <path id="Path_693" data-name="Path 693" d="M-4.641,0V5.8H-9.485V0h-1.284V13.494h1.284V7.228h4.844v6.266h1.269V0Z" transform="translate(10.769)" fill="#fff"/>
    </g>
    <g id="Group_2234" data-name="Group 2234" transform="translate(116.944 -160.687)">
      <path id="Path_694" data-name="Path 694" d="M0,0V13.494H6.515V12.029H1.284V7.268h4.8V5.841h-4.8V1.465h5.23V0Z" fill="#fff"/>
    </g>
    <g id="Group_2235" data-name="Group 2235" transform="translate(97.082 -83.035)">
      <path id="Path_695" data-name="Path 695" d="M-5.274,0-8.029,6.266H-8.06L-10.815,0h-1.423l3.574,7.808v5.687h1.238V7.808L-3.851,0Z" transform="translate(12.238)" fill="#946e42"/>
    </g>
    <g id="Group_2237" data-name="Group 2237" transform="translate(0 -160.687)" clip-path="url(#clip-path)">
      <g id="Group_2236" data-name="Group 2236" transform="translate(105.934 77.363)">
        <path id="Path_696" data-name="Path 696" d="M-3.481-10.658a3.72,3.72,0,0,1-1.71-.405,4.469,4.469,0,0,1-1.454-1.224,6.131,6.131,0,0,1-1.045-2.236,12.542,12.542,0,0,1-.386-3.287,8.429,8.429,0,0,1,1.346-5.108,3.955,3.955,0,0,1,3.25-1.812,3.882,3.882,0,0,1,3.2,1.85,8.649,8.649,0,0,1,1.338,5.147,12.668,12.668,0,0,1-.378,3.277A5.931,5.931,0,0,1-.355-12.248a4.423,4.423,0,0,1-1.44,1.195,3.724,3.724,0,0,1-1.687.395m0-1.5a2.627,2.627,0,0,0,2.29-1.407,7.936,7.936,0,0,0,.883-4.164A7.547,7.547,0,0,0-1.214-21.8a2.649,2.649,0,0,0-2.267-1.407,2.717,2.717,0,0,0-2.314,1.369,7.24,7.24,0,0,0-.921,4.029,8.031,8.031,0,0,0,.9,4.213,2.678,2.678,0,0,0,2.338,1.436" transform="translate(8.077 24.73)" fill="#946e42"/>
      </g>
    </g>
    <g id="Group_2238" data-name="Group 2238" transform="translate(117.385 -83.035)">
      <path id="Path_698" data-name="Path 698" d="M-4.817,0V10.854h-.031L-9.785,0h-1.393V13.494h1.285V2.641h.031l4.968,10.854h1.346V0Z" transform="translate(11.178)" fill="#946e42"/>
    </g>
    <g id="Group_2240" data-name="Group 2240" transform="translate(0 -160.687)" clip-path="url(#clip-path)">
      <g id="Group_2239" data-name="Group 2239" transform="translate(72.376 77.363)">
        <path id="Path_699" data-name="Path 699" d="M-3.481-10.658a3.722,3.722,0,0,1-1.71-.405,4.469,4.469,0,0,1-1.454-1.224,6.131,6.131,0,0,1-1.045-2.236,12.542,12.542,0,0,1-.386-3.287,8.429,8.429,0,0,1,1.346-5.108,3.955,3.955,0,0,1,3.25-1.812,3.882,3.882,0,0,1,3.2,1.85,8.649,8.649,0,0,1,1.338,5.147,12.668,12.668,0,0,1-.378,3.277A5.931,5.931,0,0,1-.355-12.248a4.423,4.423,0,0,1-1.44,1.195,3.724,3.724,0,0,1-1.687.395m0-1.5a2.627,2.627,0,0,0,2.29-1.407,7.936,7.936,0,0,0,.883-4.164A7.547,7.547,0,0,0-1.214-21.8a2.649,2.649,0,0,0-2.267-1.407,2.717,2.717,0,0,0-2.314,1.369,7.24,7.24,0,0,0-.921,4.029,8.037,8.037,0,0,0,.9,4.213,2.679,2.679,0,0,0,2.338,1.436" transform="translate(8.077 24.73)" fill="#946e42"/>
      </g>
    </g>
    <g id="Group_2241" data-name="Group 2241" transform="translate(83.828 -83.035)">
      <path id="Path_701" data-name="Path 701" d="M-4.817,0V10.854h-.031L-9.785,0h-1.392V13.494h1.284V2.641h.031l4.968,10.854h1.346V0Z" transform="translate(11.177)" fill="#946e42"/>
    </g>
    <g id="Group_2243" data-name="Group 2243" transform="translate(0 -160.687)" clip-path="url(#clip-path)">
      <g id="Group_2242" data-name="Group 2242" transform="translate(127.336 77.363)">
        <path id="Path_702" data-name="Path 702" d="M-3.469-10.658A3.754,3.754,0,0,1-5.2-11.063,4.438,4.438,0,0,1-6.65-12.3a6.057,6.057,0,0,1-1.029-2.245,13.043,13.043,0,0,1-.372-3.287,8.434,8.434,0,0,1,1.339-5.089A3.936,3.936,0,0,1-3.469-24.73,3.468,3.468,0,0,1-.777-23.5a5.867,5.867,0,0,1,1.362,3.22L-.7-19.988q-.542-3.219-2.77-3.219a2.719,2.719,0,0,0-2.314,1.369,7.2,7.2,0,0,0-.92,4.01A8.031,8.031,0,0,0-5.8-13.617a2.677,2.677,0,0,0,2.328,1.455,2.491,2.491,0,0,0,2.12-1.05,4.63,4.63,0,0,0,.743-2.882H-3.33v-1.465H.678v1.311A6.573,6.573,0,0,1-.467-12.142a3.613,3.613,0,0,1-3,1.484" transform="translate(8.05 24.73)" fill="#946e42"/>
      </g>
    </g>
    <g id="Group_2244" data-name="Group 2244" transform="translate(138.385 -83.035)">
      <path id="Path_704" data-name="Path 704" d="M0,0V13.494H6.515V12.029H1.285V7.268h4.8V5.84h-4.8V1.465h5.23V0Z" fill="#946e42"/>
    </g>
  </g>
</svg>
