<svg xmlns="http://www.w3.org/2000/svg" viewBox="0 0 24 30" x="0px" y="0px"><title>UI</title><g data-name="Layer 2"><path d="M2,7H22a1,1,0,0,0,0-2H2A1,1,0,0,0,2,7Z"/><path d="M22,11H2a1,1,0,0,0,0,2H22a1,1,0,0,0,0-2Z"/><path d="M22,17H2a1,1,0,0,0,0,2H22a1,1,0,0,0,0-2Z"/></g><text x="0" y="39" fill="#000000" font-size="5px" font-weight="bold" font-family="'Helvetica Neue', Helvetica, Arial-Unicode, Arial, Sans-serif">Created by Ilham Fitrotul Hayat</text><text x="0" y="44" fill="#000000" font-size="5px" font-weight="bold" font-family="'Helvetica Neue', Helvetica, Arial-Unicode, Arial, Sans-serif">from the Noun Project</text></svg>