<svg xmlns="http://www.w3.org/2000/svg" xmlns:xlink="http://www.w3.org/1999/xlink" width="54" height="53" viewBox="0 0 54 53">
  <defs>
    <clipPath id="clip-path">
      <rect id="Rectangle_837" data-name="Rectangle 837" width="54" height="53" transform="translate(-2.436 -1.953)" fill="#fff"/>
    </clipPath>
  </defs>
  <g id="Icon_Instragram" transform="translate(2.436 1.953)">
    <g id="Group_2261" data-name="Group 2261" transform="translate(0 0)" clip-path="url(#clip-path)">
      <path id="Path_716" data-name="Path 716" d="M126.3,121.636a4.665,4.665,0,1,0,4.665,4.665,4.665,4.665,0,0,0-4.665-4.665" transform="translate(-101.824 -101.462)" fill="#fff"/>
      <path id="Path_717" data-name="Path 717" d="M102.624,83.46A4.635,4.635,0,0,0,99.968,80.8a7.738,7.738,0,0,0-2.6-.482c-1.476-.067-1.918-.082-5.655-.082s-4.179.014-5.655.082a7.738,7.738,0,0,0-2.6.482A4.634,4.634,0,0,0,80.8,83.46a7.742,7.742,0,0,0-.482,2.6c-.067,1.476-.082,1.918-.082,5.655s.014,4.179.082,5.655a7.742,7.742,0,0,0,.482,2.6,4.634,4.634,0,0,0,2.656,2.656,7.742,7.742,0,0,0,2.6.482c1.476.067,1.918.082,5.655.082s4.18-.014,5.655-.082a7.742,7.742,0,0,0,2.6-.482,4.635,4.635,0,0,0,2.656-2.656,7.746,7.746,0,0,0,.482-2.6c.067-1.476.082-1.918.082-5.655s-.014-4.179-.082-5.655a7.746,7.746,0,0,0-.482-2.6M91.714,98.9A7.186,7.186,0,1,1,98.9,91.714,7.186,7.186,0,0,1,91.714,98.9m7.47-12.978a1.679,1.679,0,1,1,1.679-1.679,1.679,1.679,0,0,1-1.679,1.679" transform="translate(-67.237 -66.875)" fill="#fff"/>
      <path id="Path_718" data-name="Path 718" d="M24.67,0A24.67,24.67,0,1,0,49.34,24.67,24.67,24.67,0,0,0,24.67,0M38.581,30.44a10.273,10.273,0,0,1-.65,3.4,7.157,7.157,0,0,1-4.093,4.093,10.273,10.273,0,0,1-3.4.65c-1.493.068-1.969.084-5.77.084s-4.277-.016-5.77-.084a10.273,10.273,0,0,1-3.4-.65,7.157,7.157,0,0,1-4.093-4.093,10.273,10.273,0,0,1-.65-3.4c-.068-1.493-.084-1.969-.084-5.77s.016-4.277.084-5.77a10.273,10.273,0,0,1,.65-3.4A7.157,7.157,0,0,1,15.5,11.41a10.273,10.273,0,0,1,3.4-.65c1.493-.068,1.969-.084,5.77-.084s4.277.016,5.77.084a10.273,10.273,0,0,1,3.4.65A7.157,7.157,0,0,1,37.93,15.5a10.273,10.273,0,0,1,.65,3.4c.068,1.493.084,1.969.084,5.77s-.016,4.277-.084,5.77" transform="translate(-0.193 0.169)" fill="#fff"/>
    </g>
  </g>
</svg>
