<svg id="Icon_Bicycle_Map" xmlns="http://www.w3.org/2000/svg" xmlns:xlink="http://www.w3.org/1999/xlink" width="49.754" height="29.663" viewBox="0 0 49.754 29.663">
  <defs>
    <clipPath id="clip-path">
      <path id="Path_760" data-name="Path 760" d="M0,9.746H49.754V-19.917H0Z" transform="translate(0 19.917)" fill="none"/>
    </clipPath>
  </defs>
  <g id="Group_2290" data-name="Group 2290" transform="translate(0 0)" clip-path="url(#clip-path)">
    <g id="Group_2289" data-name="Group 2289" transform="translate(0 -0.001)">
      <path id="Path_759" data-name="Path 759" d="M3.147,3.453a10.9,10.9,0,0,1,2.487.311L7,.032,8.37-3.638,6.566-3.7l.063-1.866,6.531.125L13.1-3.575l-2.426-.061L9.676-1.024l15.611.061,1.369-2.861c-.5,0-3.732,0-4.913.125a1.426,1.426,0,0,1-.374-1.057c.623-.746,2.3-.809,3.358-.932,1.617-.188,6.345-1.929,6.9-1.183.621.871-.311,3.047-.809,3.67a10.748,10.748,0,0,1-1.866-.372L27.464-.464,30.138,4.2a9.554,9.554,0,1,1-5.907,9.888H22.24a3.235,3.235,0,0,1-3.11,2.176,3.317,3.317,0,0,1-3.3-3.3,3.373,3.373,0,0,1,.311-1.369L8.558,1.959,7.625,4.51a9.628,9.628,0,0,1,5.162,8.52,9.583,9.583,0,0,1-9.578,9.578A9.578,9.578,0,1,1,3.147,3.453Zm7.4-2.3,7.028,8.955a2.952,2.952,0,0,1,1.492-.372,4.793,4.793,0,0,1,.995.124l4.1-8.707ZM26.221,1.9l-4.416,9.329a1.916,1.916,0,0,1,.372.809h1.991a9.624,9.624,0,0,1,3.979-6.779Zm5.6,10.075a.218.218,0,0,1,.063-.125L29.268,7.309a7,7,0,0,0-2.737,4.727Zm1.929,8.334a7.246,7.246,0,1,0,0-14.491,6.9,6.9,0,0,0-2.551.5l2.612,4.539a2.178,2.178,0,0,1-.063,4.355,2.251,2.251,0,0,1-1.927-1.183H26.593a7.243,7.243,0,0,0,7.153,6.282m-30.6,0A7.253,7.253,0,0,0,6.754,6.749L4.888,11.724a1.949,1.949,0,0,1,.435,1.306,2.2,2.2,0,0,1-2.176,2.176,2.181,2.181,0,0,1-.188-4.353L4.764,6a6.82,6.82,0,0,0-1.617-.186A7.285,7.285,0,0,0-4.13,13.093a7.233,7.233,0,0,0,7.277,7.214" transform="translate(6.431 7.056)" fill="#8b643b"/>
    </g>
  </g>
</svg>
