<svg id="Icon_Bus_Map" xmlns="http://www.w3.org/2000/svg" xmlns:xlink="http://www.w3.org/1999/xlink" width="32.321" height="27.468" viewBox="0 0 32.321 27.468">
  <defs>
    <clipPath id="clip-path">
      <path id="Path_758" data-name="Path 758" d="M0,9.025H32.321V-18.443H0Z" transform="translate(0 18.443)" fill="none"/>
    </clipPath>
  </defs>
  <g id="Group_2287" data-name="Group 2287" transform="translate(0 0)" clip-path="url(#clip-path)">
    <g id="Group_2283" data-name="Group 2283" transform="translate(8.921 3.665)">
      <path id="Path_754" data-name="Path 754" d="M4.365.765H-7.758A1.165,1.165,0,0,1-8.766.182a1.167,1.167,0,0,1,0-1.163,1.165,1.165,0,0,1,1.008-.582H4.365a1.165,1.165,0,0,1,1.008.582,1.167,1.167,0,0,1,0,1.163A1.165,1.165,0,0,1,4.365.765" transform="translate(8.921 1.563)" fill="#8b643b"/>
    </g>
    <g id="Group_2284" data-name="Group 2284" transform="translate(20.355 18.5)">
      <path id="Path_755" data-name="Path 755" d="M0,.608A1.852,1.852,0,1,0,1.853-1.243,1.853,1.853,0,0,0,0,.608" transform="translate(0 1.243)" fill="#8b643b"/>
    </g>
    <g id="Group_2285" data-name="Group 2285" transform="translate(8.232 18.5)">
      <path id="Path_756" data-name="Path 756" d="M0,.608A1.852,1.852,0,1,0,1.851-1.243,1.852,1.852,0,0,0,0,.608" transform="translate(0 1.243)" fill="#8b643b"/>
    </g>
    <g id="Group_2286" data-name="Group 2286" transform="translate(0 0.001)">
      <path id="Path_757" data-name="Path 757" d="M.368,1.777H2.7V1.3A4.937,4.937,0,0,1,7.63-3.632H23.158A4.94,4.94,0,0,1,28.089,1.3v.48H30.42a1.149,1.149,0,0,1,1.15,1.15V9.8a1.164,1.164,0,0,1-2.328,0V4.108h-1.15V22.684a1.149,1.149,0,0,1-1.15,1.15H23.966a1.149,1.149,0,0,1-1.15-1.15V21.76H8v.925a1.152,1.152,0,0,1-1.151,1.15H3.877a1.152,1.152,0,0,1-1.151-1.15V4.108H1.576V9.8A1.164,1.164,0,0,1-.17,10.806,1.161,1.161,0,0,1-.752,9.8V2.942A1.151,1.151,0,0,1-.43,2.13,1.141,1.141,0,0,1,.368,1.777Zm22.79,17.656a2.6,2.6,0,0,0,2.5-1.917,14.283,14.283,0,0,0,.08-1.8V14.18a.383.383,0,0,0-.383-.383H5.421a.381.381,0,0,0-.383.383v1.534a14.1,14.1,0,0,0,.1,1.79,2.593,2.593,0,0,0,2.5,1.917ZM25.742,1.3a2.6,2.6,0,0,0-2.6-2.6H7.611A2.6,2.6,0,0,0,5.037,1.3v9.792a.384.384,0,0,0,.384.383H25.357a.384.384,0,0,0,.384-.383Z" transform="translate(0.752 3.632)" fill="#8b643b"/>
    </g>
  </g>
</svg>
