<svg id="Icon_Walk_Map" xmlns="http://www.w3.org/2000/svg" xmlns:xlink="http://www.w3.org/1999/xlink" width="22.834" height="44.163" viewBox="0 0 22.834 44.163">
  <defs>
    <clipPath id="clip-path">
      <path id="Path_748" data-name="Path 748" d="M0,14.51H22.834V-29.653H0Z" transform="translate(0 29.653)" fill="none"/>
    </clipPath>
  </defs>
  <g id="Group_2275" data-name="Group 2275" transform="translate(0 0)" clip-path="url(#clip-path)">
    <g id="Group_2271" data-name="Group 2271" transform="translate(6.797 0.213)">
      <path id="Path_744" data-name="Path 744" d="M1.333,2.666A4.062,4.062,0,0,0,5.39-1.391,4.062,4.062,0,0,0,1.333-5.449,4.063,4.063,0,0,0-2.725-1.391,4.063,4.063,0,0,0,1.333,2.666m0-7.076A3.021,3.021,0,0,1,4.352-1.392,3.023,3.023,0,0,1,1.333,1.627,3.022,3.022,0,0,1-1.685-1.392,3.021,3.021,0,0,1,1.333-4.409" transform="translate(2.725 5.449)" fill="#8b643b"/>
    </g>
    <g id="Group_2272" data-name="Group 2272" transform="translate(6.797 0.213)">
      <path id="Path_745" data-name="Path 745" d="M1.333,2.666A4.062,4.062,0,0,0,5.39-1.391,4.062,4.062,0,0,0,1.333-5.449,4.063,4.063,0,0,0-2.725-1.391,4.063,4.063,0,0,0,1.333,2.666Zm0-7.076A3.021,3.021,0,0,1,4.352-1.392,3.023,3.023,0,0,1,1.333,1.627,3.022,3.022,0,0,1-1.685-1.392,3.021,3.021,0,0,1,1.333-4.409Z" transform="translate(2.725 5.449)" fill="none" stroke="#8b643b" stroke-width="0.285"/>
    </g>
    <g id="Group_2273" data-name="Group 2273" transform="translate(0.212 9.227)">
      <path id="Path_746" data-name="Path 746" d="M7.249,10.12-.369-3.073a3.9,3.9,0,0,0,.29-1.463v-9.581l.986.511v4.084A2.283,2.283,0,0,0,1.579-7.9a2.291,2.291,0,0,0,1.629.676,2.3,2.3,0,0,0,2.3-2.3L5.56-14.36a2.723,2.723,0,0,0-1.235-2.664c-.192-.1-4.72-2.508-6.319-3.26a3.516,3.516,0,0,0-.907-.329,3.408,3.408,0,0,0-.968-.049,4.3,4.3,0,0,0-2.478,1.294,4.376,4.376,0,0,0-1.16,3.043v1.737l-4.355,4.778a2.291,2.291,0,0,0-.6,1.544,2.291,2.291,0,0,0,.751,1.7,2.286,2.286,0,0,0,1.549.6,2.3,2.3,0,0,0,1.7-.749l.953-1.046v3.349a3.583,3.583,0,0,0,.091.818l-5.07,6.123a2.324,2.324,0,0,0-.372.757l-1.881,7.529a2.607,2.607,0,0,0,1.89,3.147,2.58,2.58,0,0,0,.63.079A2.591,2.591,0,0,0-9.7,12.069l1.757-7.03L-4.212.655,2.749,12.717a2.6,2.6,0,0,0,4.5-2.6ZM-9.227-7.414a1.26,1.26,0,0,1-1.78.083,1.262,1.262,0,0,1-.414-.937,1.255,1.255,0,0,1,.328-.846l3.586-3.935V-9.3ZM-8.89,4.551l-1.818,7.268A1.552,1.552,0,0,1-12.219,13a1.528,1.528,0,0,1-.377-.048,1.564,1.564,0,0,1-1.135-1.888l1.871-7.493a1.318,1.318,0,0,1,.2-.419l5.4-6.516-.091-.274a2.449,2.449,0,0,1-.119-.776V-16.326a3.4,3.4,0,0,1,.874-2.328,3.266,3.266,0,0,1,1.875-.981.991.991,0,0,1,.125-.007,3.478,3.478,0,0,1,.524.055c.016,0,.031,0,.048.007a6.163,6.163,0,0,1,.593.238c1.57.74,6.221,3.211,6.273,3.238A1.789,1.789,0,0,1,4.524-14.4L4.467-9.521A1.262,1.262,0,0,1,3.209-8.259a1.263,1.263,0,0,1-.9-.372,1.251,1.251,0,0,1-.366-.891v-4.715l-3.065-1.588V-4.534a2.865,2.865,0,0,1-.3,1.276A2.681,2.681,0,0,1-3.355-1.77l-.186.031ZM5.776,12.766A1.562,1.562,0,0,1,3.648,12.2L-3.5-.186l.508-.6A3.68,3.68,0,0,0-.973-2.045L6.348,10.637a1.564,1.564,0,0,1,.207.776,1.542,1.542,0,0,1-.779,1.352Z" transform="translate(14.815 20.681)" fill="#8b643b"/>
    </g>
    <g id="Group_2274" data-name="Group 2274" transform="translate(0.212 9.227)">
      <path id="Path_747" data-name="Path 747" d="M7.249,10.12-.369-3.073a3.9,3.9,0,0,0,.29-1.463v-9.581l.986.511v4.084A2.283,2.283,0,0,0,1.579-7.9a2.291,2.291,0,0,0,1.629.676,2.3,2.3,0,0,0,2.3-2.3L5.56-14.36a2.723,2.723,0,0,0-1.235-2.664c-.192-.1-4.72-2.508-6.319-3.26a3.516,3.516,0,0,0-.907-.329,3.408,3.408,0,0,0-.968-.049,4.3,4.3,0,0,0-2.478,1.294,4.376,4.376,0,0,0-1.16,3.043v1.737l-4.355,4.778a2.291,2.291,0,0,0-.6,1.544,2.291,2.291,0,0,0,.751,1.7,2.286,2.286,0,0,0,1.549.6,2.3,2.3,0,0,0,1.7-.749l.953-1.046v3.349a3.583,3.583,0,0,0,.091.818l-5.07,6.123a2.324,2.324,0,0,0-.372.757l-1.881,7.529a2.607,2.607,0,0,0,1.89,3.147,2.58,2.58,0,0,0,.63.079A2.591,2.591,0,0,0-9.7,12.069l1.757-7.03L-4.212.655,2.749,12.717a2.6,2.6,0,0,0,4.5-2.6ZM-9.227-7.414a1.26,1.26,0,0,1-1.78.083,1.262,1.262,0,0,1-.414-.937,1.255,1.255,0,0,1,.328-.846l3.586-3.935V-9.3ZM-8.89,4.551l-1.818,7.268A1.552,1.552,0,0,1-12.219,13a1.528,1.528,0,0,1-.377-.048,1.564,1.564,0,0,1-1.135-1.888l1.871-7.493a1.318,1.318,0,0,1,.2-.419l5.4-6.516-.091-.274a2.449,2.449,0,0,1-.119-.776V-16.326a3.4,3.4,0,0,1,.874-2.328,3.266,3.266,0,0,1,1.875-.981.991.991,0,0,1,.125-.007,3.478,3.478,0,0,1,.524.055c.016,0,.031,0,.048.007a6.163,6.163,0,0,1,.593.238c1.57.74,6.221,3.211,6.273,3.238A1.789,1.789,0,0,1,4.524-14.4L4.467-9.521A1.262,1.262,0,0,1,3.209-8.259a1.263,1.263,0,0,1-.9-.372,1.251,1.251,0,0,1-.366-.891v-4.715l-3.065-1.588V-4.534a2.865,2.865,0,0,1-.3,1.276A2.681,2.681,0,0,1-3.355-1.77l-.186.031ZM5.776,12.766A1.562,1.562,0,0,1,3.648,12.2L-3.5-.186l.508-.6A3.68,3.68,0,0,0-.973-2.045L6.348,10.637a1.564,1.564,0,0,1,.207.776,1.542,1.542,0,0,1-.779,1.352Z" transform="translate(14.815 20.681)" fill="none" stroke="#8b643b" stroke-width="0.285"/>
    </g>
  </g>
</svg>
