<svg id="Icon_Car_Map" xmlns="http://www.w3.org/2000/svg" xmlns:xlink="http://www.w3.org/1999/xlink" width="46.939" height="24.748" viewBox="0 0 46.939 24.748">
  <defs>
    <clipPath id="clip-path">
      <path id="Path_743" data-name="Path 743" d="M0,8.131H46.939V-16.617H0Z" transform="translate(0 16.617)" fill="none"/>
    </clipPath>
  </defs>
  <g id="Group_2269" data-name="Group 2269" transform="translate(0 0)" clip-path="url(#clip-path)">
    <g id="Group_2268" data-name="Group 2268" transform="translate(-0.001 -0.001)">
      <path id="Path_742" data-name="Path 742" d="M1.608,6.587h1.44a5.674,5.674,0,0,0,11.179,0H25.3a5.674,5.674,0,0,0,11.179,0h5.256a1.923,1.923,0,0,0,1.921-1.92V-.616a4.9,4.9,0,0,0-4.894-4.892H32.922c-3.6-3.44-5.3-7.953-10.567-7.953H10.563a7.8,7.8,0,0,0-6.589,3.6L1.18-5.509H-2.306a.979.979,0,0,0-.98.978V1.694A4.9,4.9,0,0,0,1.608,6.587ZM8.638,9.33A3.726,3.726,0,0,1,4.916,5.62s0-.007,0-.012,0-.009,0-.013A3.723,3.723,0,1,1,8.638,9.33m22.25,0A3.723,3.723,0,1,1,34.61,5.6v.013A3.725,3.725,0,0,1,30.888,9.33ZM30.307-5.508H17.862v-6h4.493c3.951,0,5.247,3.409,7.951,6M5.623-8.8a5.849,5.849,0,0,1,4.942-2.7h5.341v6H3.507ZM-1.328-3.551H38.761A2.94,2.94,0,0,1,41.7-.616l.037,5.245H36.479a5.674,5.674,0,0,0-11.18,0H14.228a5.674,5.674,0,0,0-11.18,0H1.609A2.94,2.94,0,0,1-1.328,1.693Z" transform="translate(3.286 13.461)" fill="#8b643b"/>
    </g>
  </g>
</svg>
