<svg id="Icon_BusStop_Map" xmlns="http://www.w3.org/2000/svg" xmlns:xlink="http://www.w3.org/1999/xlink" width="28.024" height="45.154" viewBox="0 0 28.024 45.154">
  <defs>
    <clipPath id="clip-path">
      <path id="Path_753" data-name="Path 753" d="M0,11.461H28.024V-33.693H0Z" transform="translate(0 33.693)" fill="none"/>
    </clipPath>
  </defs>
  <g id="Group_2281" data-name="Group 2281" transform="translate(0 0)" clip-path="url(#clip-path)">
    <g id="Group_2277" data-name="Group 2277" transform="translate(0 0)">
      <path id="Path_749" data-name="Path 749" d="M7.113,3.56a14.01,14.01,0,0,0-3.885-9.7,14.012,14.012,0,0,0-9.512-4.314A14.009,14.009,0,0,0-16.14-6.986a14.015,14.015,0,0,0-4.719,9.319,14.019,14.019,0,0,0,3.041,9.995,14.011,14.011,0,0,0,9.109,5.113v13.75h-2.774v3.5h9.168v-3.5H-5.089V17.441A14.015,14.015,0,0,0,3.623,12.8,14.015,14.015,0,0,0,7.113,3.56m-25.121,0h0A11.118,11.118,0,0,1-14.752-4.3,11.111,11.111,0,0,1-6.89-7.556,11.113,11.113,0,0,1,.97-4.3,11.118,11.118,0,0,1,4.224,3.565,11.113,11.113,0,0,1,.963,11.424,11.11,11.11,0,0,1-6.9,14.675a11.121,11.121,0,0,1-7.857-3.258A11.121,11.121,0,0,1-18.015,3.56Z" transform="translate(20.911 10.465)" fill="#946e42"/>
    </g>
    <g id="Group_2278" data-name="Group 2278" transform="translate(4.143 10.349)">
      <path id="Path_750" data-name="Path 750" d="M.836,1.846h-3.3V-5.427H1.074a2.247,2.247,0,0,1,1.894.775A1.845,1.845,0,0,1,3.3-3.541a1.626,1.626,0,0,1-.336,1.071,1.732,1.732,0,0,1-.552.414,1.628,1.628,0,0,1,.842.641A1.928,1.928,0,0,1,3.541-.349,2.118,2.118,0,0,1,3.215.81a2.022,2.022,0,0,1-.519.572,2.028,2.028,0,0,1-.827.365,5.1,5.1,0,0,1-1.033.1m.721-4.589a.68.68,0,0,0,.295-.637.651.651,0,0,0-.394-.671A2.816,2.816,0,0,0,.59-4.163h-1.6v1.6H.777a1.487,1.487,0,0,0,.78-.182M.8-1.356H-1.009V.582H.777A1.754,1.754,0,0,0,1.523.455a.916.916,0,0,0,.484-.909.779.779,0,0,0-.469-.779A1.866,1.866,0,0,0,.8-1.356" transform="translate(2.459 5.427)" fill="#946e42"/>
    </g>
    <g id="Group_2279" data-name="Group 2279" transform="translate(11.416 10.349)">
      <path id="Path_751" data-name="Path 751" d="M1.092,1.135V-3.336H2.636V1.135a3.752,3.752,0,0,1-.359,1.807A2.683,2.683,0,0,1-.284,4.125,2.7,2.7,0,0,1-2.851,2.941,3.752,3.752,0,0,1-3.21,1.135V-3.336h1.544V1.135A2.528,2.528,0,0,0-1.489,2.23a1.179,1.179,0,0,0,1.2.612,1.171,1.171,0,0,0,1.2-.612,2.5,2.5,0,0,0,.178-1.095" transform="translate(3.21 3.336)" fill="#946e42"/>
    </g>
    <g id="Group_2280" data-name="Group 2280" transform="translate(18.362 10.137)">
      <path id="Path_752" data-name="Path 752" d="M.759,1.633a2.675,2.675,0,0,0,.874-.118A.845.845,0,0,0,2.269.671.623.623,0,0,0,1.953.113a3.4,3.4,0,0,0-.992-.34L.192-.4A4.831,4.831,0,0,1-1.377-.957a1.772,1.772,0,0,1-.736-1.573A2.107,2.107,0,0,1-1.4-4.155,3.011,3.011,0,0,1,.685-4.8a3.173,3.173,0,0,1,1.961.61A2.172,2.172,0,0,1,3.5-2.422H2.037a1.043,1.043,0,0,0-.572-.933,1.92,1.92,0,0,0-.883-.182A1.656,1.656,0,0,0-.356-3.3a.756.756,0,0,0-.35.662.626.626,0,0,0,.344.582,4.224,4.224,0,0,0,.947.3l1.253.3a3.24,3.24,0,0,1,1.244.528A1.78,1.78,0,0,1,3.734.557a2.1,2.1,0,0,1-.763,1.656,3.2,3.2,0,0,1-2.154.658,3.492,3.492,0,0,1-2.235-.649A2.155,2.155,0,0,1-2.231.439h1.45a1.5,1.5,0,0,0,.272.745,1.562,1.562,0,0,0,1.268.449" transform="translate(2.231 4.801)" fill="#946e42"/>
    </g>
  </g>
</svg>
